<!DOCTYPE svg PUBLIC "-//W3C//DTD SVG 1.1//EN" "http://www.w3.org/Graphics/SVG/1.1/DTD/svg11.dtd">
<!-- Uploaded to: SVG Repo, www.svgrepo.com, Transformed by: SVG Repo Mixer Tools -->
<svg fill="#9197B3" height="103px" width="103px" version="1.1" id="Layer_1" xmlns="http://www.w3.org/2000/svg" xmlns:xlink="http://www.w3.org/1999/xlink" viewBox="0 0 297.001 297.001" xml:space="preserve">
<g id="SVGRepo_bgCarrier" stroke-width="0"/>
<g id="SVGRepo_tracerCarrier" stroke-linecap="round" stroke-linejoin="round"/>
<g id="SVGRepo_iconCarrier"> <g> <g> <g> <path d="M66.415,140.315c15.028,0,29.778-20.826,29.778-42.044c0-18.089-11.689-29.777-29.778-29.777 S36.638,80.182,36.638,98.271C36.638,119.489,51.387,140.315,66.415,140.315z"/> <path d="M230.587,140.315c15.028,0,29.777-20.826,29.777-42.044c0-18.089-11.688-29.777-29.777-29.777 s-29.778,11.688-29.778,29.777C200.809,119.489,215.559,140.315,230.587,140.315z"/> <path d="M56.127,152.637c-0.409,4.652-1.761,10.138-5.382,14.589c0.158,6.338,4.097,11.753,9.641,14.072 c5.826-6.226,13.093-11.276,21.303-14.616c-3.306-4.351-4.591-9.577-4.984-14.045c-3.279,1.107-6.717,1.725-10.289,1.725 C62.843,154.362,59.406,153.743,56.127,152.637z"/> <path d="M220.298,152.637c-0.392,4.467-1.677,9.694-4.984,14.045c8.21,3.34,15.477,8.39,21.303,14.616 c5.544-2.319,9.483-7.734,9.641-14.072c-3.621-4.451-4.974-9.937-5.382-14.589c-3.279,1.107-6.717,1.725-10.289,1.725 C227.015,154.362,223.577,153.743,220.298,152.637z"/> <path d="M296.931,228.779c-1.524-12.634-2.786-22.358-3.65-28.123c-1.674-11.164-10.851-20.678-22.836-23.674l-11.066-2.766 c-2.051,7.988-7.357,14.667-14.405,18.583c2.95,5.382,4.983,11.23,5.899,17.339c0.981,6.55,2.276,16.323,3.858,29.116h32.912 c2.714,0,5.201-1.118,7.001-3.148C296.444,234.075,297.255,231.473,296.931,228.779z"/> <path d="M37.622,174.216l-11.066,2.766c-11.985,2.996-21.162,12.511-22.836,23.675c-0.864,5.764-2.126,15.488-3.65,28.121 c-0.324,2.695,0.487,5.296,2.287,7.326c1.8,2.03,4.287,3.148,7.001,3.148h32.913c1.581-12.793,2.876-22.565,3.857-29.116 c0.916-6.109,2.949-11.957,5.899-17.339C44.98,188.883,39.673,182.203,37.622,174.216z"/> <path d="M236.981,212.221c-2.447-16.325-15.802-30.221-33.232-34.578l-17.766-4.442c-3.277,17.716-18.832,31.179-37.482,31.179 c-18.65,0-34.205-13.464-37.482-31.179l-17.765,4.442C75.823,182,62.467,195.895,60.021,212.221 c-1.202,8.015-2.888,21.005-5.012,38.609c-0.535,4.441,0.803,8.729,3.771,12.075s7.065,5.189,11.539,5.189h156.366 c4.474,0,8.572-1.843,11.539-5.189c2.967-3.346,4.305-7.634,3.77-12.076C239.869,233.226,238.184,220.236,236.981,212.221z"/> <path d="M148.501,132.522c24.444,0,43.404-32.368,43.404-60.212c0-26.367-17.037-43.404-43.404-43.404 s-43.404,17.037-43.404,43.404C105.097,100.154,124.057,132.522,148.501,132.522z"/> <path d="M131.959,143.139c-0.159,6.77-1.643,15.925-7.539,22.706c0,13.278,10.803,24.488,24.081,24.488 s24.081-11.21,24.081-24.488c-5.896-6.781-7.38-15.936-7.539-22.706c-5.196,2.204-10.739,3.43-16.542,3.43 S137.155,145.343,131.959,143.139z"/> </g> </g> </g> </g>
</svg>