<!DOCTYPE svg PUBLIC "-//W3C//DTD SVG 1.1//EN" "http://www.w3.org/Graphics/SVG/1.1/DTD/svg11.dtd">
<!-- Uploaded to: SVG Repo, www.svgrepo.com, Transformed by: SVG Repo Mixer Tools -->
<svg fill="#ffffff" width="800px" height="800px" viewBox="0 0 24 24" id="recycle-bin-2" data-name="Line Color" xmlns="http://www.w3.org/2000/svg" class="icon line-color">
<g id="SVGRepo_bgCarrier" stroke-width="0"/>
<g id="SVGRepo_tracerCarrier" stroke-linecap="round" stroke-linejoin="round"/>
<g id="SVGRepo_iconCarrier">
<path id="primary" d="M17.24,16.11,18,7H6l.93,13.07a1,1,0,0,0,1,.93H11l1-2h2" style="fill: none; stroke: #067E83; stroke-linecap: round; stroke-linejoin: round; stroke-width: 2;"/>
<path id="primary-2" data-name="primary" d="M17,7l-.81-3.24a1,1,0,0,0-1-.76H8.78a1,1,0,0,0-1,.76L7,7Z" style="fill: none; stroke: #067E83; stroke-linecap: round; stroke-linejoin: round; stroke-width: 2;"/>
<path id="secondary" d="M5,7H19m0,11.5A2.5,2.5,0,1,0,16.5,21,2.5,2.5,0,0,0,19,18.5Z" style="fill: none; stroke: #FFF; stroke-linecap: round; stroke-linejoin: round; stroke-width: 2;"/>
</g>
</svg>