<!DOCTYPE svg PUBLIC "-//W3C//DTD SVG 1.1//EN" "http://www.w3.org/Graphics/SVG/1.1/DTD/svg11.dtd">
<!-- Uploaded to: SVG Repo, www.svgrepo.com, Transformed by: SVG Repo Mixer Tools -->
<svg fill="#96A5BE" height="800px" width="800px" version="1.2" baseProfile="tiny" id="Layer_1" xmlns="http://www.w3.org/2000/svg" xmlns:xlink="http://www.w3.org/1999/xlink" viewBox="0 0 256 256" xml:space="preserve">
<g id="SVGRepo_bgCarrier" stroke-width="0"/>
<g id="SVGRepo_tracerCarrier" stroke-linecap="round" stroke-linejoin="round"/>
<g id="SVGRepo_iconCarrier"> <path id="XMLID_5_" d="M176.3,0H81.9C73.1,0,66,7.1,66,15.9v224.3c0,8.8,7.1,15.9,15.9,15.9H176c8.8,0,15.9-7.1,15.9-15.9V15.9 C191.9,7.1,184.8,0,176.3,0z M129.1,247c-5.1,0-9.4-4.3-9.4-9.4c0-5.1,4.3-9.4,9.4-9.4c5.1,0,9.4,4.3,9.4,9.4 C138.5,242.7,134.2,247,129.1,247z M181.1,218.3h-104V37.5h104.3v180.8H181.1z"/> </g>
</svg>